<svg width="31" height="30" viewBox="0 0 31 30" fill="none" xmlns="http://www.w3.org/2000/svg">
<circle opacity="0.9" cx="15.25" cy="15" r="15" fill="#84798E" fill-opacity="0.73"/>
<path d="M14.9439 8.69386C16.903 8.69386 17.1479 8.69386 17.9439 8.75509C19.9643 8.81631 20.8826 9.7959 20.9439 11.7551C21.0051 12.551 21.0051 12.7347 21.0051 14.6939C21.0051 16.653 21.0051 16.8979 20.9439 17.6326C20.8826 19.5918 19.903 20.5714 17.9439 20.6326C17.1479 20.6939 16.9643 20.6939 14.9439 20.6939C12.9847 20.6939 12.7398 20.6939 12.0051 20.6326C9.98468 20.5714 9.06631 19.5918 9.00509 17.6326C8.94386 16.8367 8.94386 16.653 8.94386 14.6939C8.94386 12.7347 8.94386 12.4898 9.00509 11.7551C9.06631 9.7959 10.0459 8.81631 12.0051 8.75509C12.7398 8.69386 12.9847 8.69386 14.9439 8.69386ZM14.9439 7.34692C12.9235 7.34692 12.6786 7.34692 11.9439 7.40815C9.24998 7.5306 7.7806 8.99998 7.65815 11.6939C7.59692 12.4286 7.59692 12.6735 7.59692 14.6939C7.59692 16.7143 7.59692 16.9592 7.65815 17.6939C7.7806 20.3877 9.24998 21.8571 11.9439 21.9796C12.6786 22.0408 12.9235 22.0408 14.9439 22.0408C16.9643 22.0408 17.2092 22.0408 17.9439 21.9796C20.6377 21.8571 22.1071 20.3877 22.2296 17.6939C22.2908 16.9592 22.2908 16.7143 22.2908 14.6939C22.2908 12.6735 22.2908 12.4286 22.2296 11.6939C22.1071 8.99998 20.6377 7.5306 17.9439 7.40815C17.2092 7.34692 16.9643 7.34692 14.9439 7.34692ZM14.9439 10.8979C12.8622 10.8979 11.1479 12.6122 11.1479 14.6939C11.1479 16.7755 12.8622 18.4898 14.9439 18.4898C17.0255 18.4898 18.7398 16.7755 18.7398 14.6939C18.7398 12.6122 17.0255 10.8979 14.9439 10.8979ZM14.9439 17.1428C13.5969 17.1428 12.4949 16.0408 12.4949 14.6939C12.4949 13.3469 13.5969 12.2449 14.9439 12.2449C16.2908 12.2449 17.3928 13.3469 17.3928 14.6939C17.3928 16.0408 16.2908 17.1428 14.9439 17.1428ZM18.8622 9.91835C18.3724 9.91835 18.0051 10.2857 18.0051 10.7755C18.0051 11.2653 18.3724 11.6326 18.8622 11.6326C19.352 11.6326 19.7194 11.2653 19.7194 10.7755C19.7194 10.2857 19.352 9.91835 18.8622 9.91835Z" fill="#FAFCFE"/>
</svg>
