<svg width="30" height="30" viewBox="0 0 30 30" fill="none" xmlns="http://www.w3.org/2000/svg">
<circle cx="15" cy="15" r="15" fill="#84798E" fill-opacity="0.73"/>
<path d="M7.35196 10.0562L9.80257 7.60559C10.0417 7.3665 10.4293 7.3665 10.6684 7.60559L13.2433 10.1805C13.4672 10.4044 13.4834 10.7621 13.2807 11.0054L12.079 12.4475C11.9873 12.5575 11.9359 12.6979 11.941 12.841C12.0644 16.3672 15.1088 17.7259 17.1244 18.0291C17.2892 18.0538 17.4545 18.0025 17.5825 17.8959L18.9945 16.7192C19.2378 16.5164 19.5955 16.5327 19.8194 16.7566L22.419 19.3562C22.6482 19.5854 22.6591 19.9536 22.4437 20.1959L20.3057 22.6012C20.179 22.7437 19.996 22.8191 19.8065 22.7986C18.5692 22.6647 13.7713 21.9937 10.9161 19.4241C7.63638 16.4723 7.20136 12.783 7.17411 10.4885C7.17219 10.3262 7.23715 10.171 7.35196 10.0562Z" stroke="#FAFCFE" stroke-width="1.22449" stroke-linecap="round" stroke-linejoin="round"/>
</svg>
